<svg width="16" height="16" viewBox="0 0 16 16" fill="none" xmlns="http://www.w3.org/2000/svg">
<path fill-rule="evenodd" clip-rule="evenodd" d="M7.9994 1.1434C8.29056 1.1434 8.52687 1.37971 8.52687 1.67087V10.0471C8.52687 10.187 8.4713 10.3212 8.37238 10.4201C8.27346 10.519 8.13929 10.5746 7.9994 10.5746C7.8595 10.5746 7.72534 10.519 7.62642 10.4201C7.5275 10.3212 7.47192 10.187 7.47192 10.0471V1.67087C7.47192 1.37971 7.70823 1.1434 7.9994 1.1434Z" fill="black"/>
<path fill-rule="evenodd" clip-rule="evenodd" d="M4.84663 7.27662C4.94542 7.17769 5.07945 7.12203 5.21927 7.12187C5.35908 7.12171 5.49324 7.17707 5.59226 7.27578L7.99796 9.67473L10.4032 7.27578C10.4523 7.22685 10.5105 7.18806 10.5745 7.16162C10.6385 7.13518 10.7072 7.12161 10.7764 7.12169C10.8457 7.12177 10.9143 7.13549 10.9783 7.16207C11.0422 7.18866 11.1004 7.22758 11.1493 7.27662C11.1982 7.32567 11.237 7.38387 11.2635 7.4479C11.2899 7.51194 11.3035 7.58055 11.3034 7.64983C11.3033 7.71911 11.2896 7.78769 11.263 7.85166C11.2364 7.91564 11.1975 7.97375 11.1484 8.02268L8.56805 10.5963C8.24988 10.9141 7.74899 10.8976 7.4401 10.6081C7.43624 10.6044 7.43244 10.6006 7.42871 10.5967L4.84747 8.02268C4.79842 7.97375 4.75949 7.91564 4.7329 7.85167C4.70631 7.78769 4.69258 7.71911 4.69251 7.64983C4.69243 7.58055 4.706 7.51193 4.73244 7.4479C4.75889 7.38386 4.79769 7.32566 4.84663 7.27662Z" fill="black"/>
<path fill-rule="evenodd" clip-rule="evenodd" d="M1.66956 9.78012C1.96073 9.78012 2.19703 10.0164 2.19703 10.3076V11.6368C2.19815 12.0257 2.35357 12.3982 2.62916 12.6725C2.90474 12.9468 3.27795 13.1005 3.66678 13.0998H12.3317C13.1457 13.0998 13.8014 12.4415 13.8014 11.6368V10.3076C13.8014 10.1677 13.857 10.0335 13.9559 9.93461C14.0548 9.83569 14.189 9.78012 14.3289 9.78012C14.4688 9.78012 14.603 9.83569 14.7019 9.93461C14.8008 10.0335 14.8564 10.1677 14.8564 10.3076V11.6368C14.8564 13.0264 13.7255 14.1548 12.3317 14.1548H3.66678C2.27257 14.1548 1.14209 13.0264 1.14209 11.6368V10.3076C1.14209 10.0164 1.3784 9.78012 1.66956 9.78012Z" fill="black"/>
</svg>
