<svg width="16" height="16" viewBox="0 0 16 16" fill="none" xmlns="http://www.w3.org/2000/svg">
<circle cx="8" cy="8" r="7" fill="#1DA2F4"/>
<path d="M11.6311 5.44488C11.7193 5.53269 11.7689 5.65177 11.7689 5.77593C11.7689 5.90009 11.7193 6.01917 11.6311 6.10698L7.1585 10.5553C7.07021 10.6431 6.95048 10.6924 6.82565 10.6924C6.70081 10.6924 6.58108 10.6431 6.49279 10.5553L4.3742 8.4482C4.32923 8.40501 4.29337 8.35334 4.26869 8.29621C4.24402 8.23909 4.23103 8.17764 4.23049 8.11547C4.22994 8.0533 4.24186 7.99164 4.26553 7.93409C4.2892 7.87655 4.32416 7.82427 4.36836 7.7803C4.41257 7.73634 4.46513 7.70157 4.52299 7.67802C4.58085 7.65448 4.64285 7.64263 4.70536 7.64317C4.76787 7.64371 4.82965 7.65663 4.88709 7.68117C4.94453 7.70571 4.99648 7.74138 5.03991 7.78611L6.82565 9.56216L10.9654 5.44488C11.0537 5.3571 11.1734 5.30779 11.2982 5.30779C11.4231 5.30779 11.5428 5.3571 11.6311 5.44488Z" fill="white"/>
</svg>
