<svg width="16" height="16" viewBox="0 0 16 16" fill="none" xmlns="http://www.w3.org/2000/svg">
<path fill-rule="evenodd" clip-rule="evenodd" d="M7.85733 1C8.1485 1 8.38481 1.23631 8.38481 1.52747V9.90374C8.38481 10.0436 8.32923 10.1778 8.23031 10.2767C8.13139 10.3756 7.99723 10.4312 7.85733 10.4312C7.71744 10.4312 7.58327 10.3756 7.48435 10.2767C7.38543 10.1778 7.32986 10.0436 7.32986 9.90374V1.52747C7.32986 1.23631 7.56617 1 7.85733 1Z" fill="#121212"/>
<path fill-rule="evenodd" clip-rule="evenodd" d="M4.70447 7.13323C4.80326 7.0343 4.9373 6.97864 5.07711 6.97848C5.21693 6.97832 5.35108 7.03368 5.4501 7.13239L7.8558 9.53133L10.2611 7.13239C10.3101 7.08346 10.3683 7.04467 10.4324 7.01823C10.4964 6.99179 10.565 6.97822 10.6343 6.9783C10.7036 6.97838 10.7721 6.9921 10.8361 7.01868C10.9001 7.04527 10.9582 7.08419 11.0071 7.13323C11.0561 7.18228 11.0949 7.24048 11.1213 7.30451C11.1477 7.36855 11.1613 7.43716 11.1612 7.50644C11.1611 7.57571 11.1474 7.6443 11.1208 7.70827C11.0943 7.77225 11.0553 7.83036 11.0063 7.87929L8.42589 10.4529C8.10772 10.7707 7.60683 10.7542 7.29795 10.4648C7.29409 10.461 7.29029 10.4572 7.28655 10.4534L4.70531 7.87929C4.65626 7.83036 4.61733 7.77225 4.59074 7.70828C4.56415 7.6443 4.55043 7.57572 4.55035 7.50644C4.55027 7.43716 4.56384 7.36854 4.59028 7.3045C4.61673 7.24047 4.65553 7.18227 4.70447 7.13323Z" fill="#121212"/>
<path fill-rule="evenodd" clip-rule="evenodd" d="M1.52747 9.63672C1.81864 9.63672 2.05494 9.87303 2.05494 10.1642V11.4934C2.05606 11.8823 2.21149 12.2548 2.48707 12.5291C2.76265 12.8034 3.13586 12.9571 3.52469 12.9564H12.1896C13.0036 12.9564 13.6593 12.2981 13.6593 11.4934V10.1642C13.6593 10.0243 13.7149 9.89013 13.8138 9.79121C13.9128 9.69229 14.0469 9.63672 14.1868 9.63672C14.3267 9.63672 14.4609 9.69229 14.5598 9.79121C14.6587 9.89013 14.7143 10.0243 14.7143 10.1642V11.4934C14.7143 12.883 13.5834 14.0114 12.1896 14.0114H3.52469C2.13048 14.0114 1 12.883 1 11.4934V10.1642C1 9.87303 1.23631 9.63672 1.52747 9.63672Z" fill="#121212"/>
<mask id="mask0_506_1625" style="mask-type:alpha" maskUnits="userSpaceOnUse" x="1" y="1" width="14" height="14">
<path fill-rule="evenodd" clip-rule="evenodd" d="M7.85733 1C8.1485 1 8.38481 1.23631 8.38481 1.52747V9.90374C8.38481 10.0436 8.32923 10.1778 8.23031 10.2767C8.13139 10.3756 7.99723 10.4312 7.85733 10.4312C7.71744 10.4312 7.58327 10.3756 7.48435 10.2767C7.38543 10.1778 7.32986 10.0436 7.32986 9.90374V1.52747C7.32986 1.23631 7.56617 1 7.85733 1Z" fill="#121212"/>
<path fill-rule="evenodd" clip-rule="evenodd" d="M4.70447 7.13323C4.80326 7.0343 4.9373 6.97864 5.07711 6.97848C5.21693 6.97832 5.35108 7.03368 5.4501 7.13239L7.8558 9.53133L10.2611 7.13239C10.3101 7.08346 10.3683 7.04467 10.4324 7.01823C10.4964 6.99179 10.565 6.97822 10.6343 6.9783C10.7036 6.97838 10.7721 6.9921 10.8361 7.01868C10.9001 7.04527 10.9582 7.08419 11.0071 7.13323C11.0561 7.18228 11.0949 7.24048 11.1213 7.30451C11.1477 7.36855 11.1613 7.43716 11.1612 7.50644C11.1611 7.57571 11.1474 7.6443 11.1208 7.70827C11.0943 7.77225 11.0553 7.83036 11.0063 7.87929L8.42589 10.4529C8.10772 10.7707 7.60683 10.7542 7.29795 10.4648C7.29409 10.461 7.29029 10.4572 7.28655 10.4534L4.70531 7.87929C4.65626 7.83036 4.61733 7.77225 4.59074 7.70828C4.56415 7.6443 4.55043 7.57572 4.55035 7.50644C4.55027 7.43716 4.56384 7.36854 4.59028 7.3045C4.61673 7.24047 4.65553 7.18227 4.70447 7.13323Z" fill="#121212"/>
<path fill-rule="evenodd" clip-rule="evenodd" d="M1.52747 9.63672C1.81864 9.63672 2.05494 9.87303 2.05494 10.1642V11.4934C2.05606 11.8823 2.21149 12.2548 2.48707 12.5291C2.76265 12.8034 3.13586 12.9571 3.52469 12.9564H12.1896C13.0036 12.9564 13.6593 12.2981 13.6593 11.4934V10.1642C13.6593 10.0243 13.7149 9.89013 13.8138 9.79121C13.9128 9.69229 14.0469 9.63672 14.1868 9.63672C14.3267 9.63672 14.4609 9.69229 14.5598 9.79121C14.6587 9.89013 14.7143 10.0243 14.7143 10.1642V11.4934C14.7143 12.883 13.5834 14.0114 12.1896 14.0114H3.52469C2.13048 14.0114 1 12.883 1 11.4934V10.1642C1 9.87303 1.23631 9.63672 1.52747 9.63672Z" fill="#121212"/>
</mask>
<g mask="url(#mask0_506_1625)">
<rect x="1" y="1" width="13.71" height="13.01" fill="#1DA2F4"/>
</g>
</svg>
