<svg width="30" height="30" viewBox="0 0 30 30" fill="none" xmlns="http://www.w3.org/2000/svg">
<rect width="30" height="30" rx="6" fill="white" fill-opacity="0.9"/>
<path d="M8 15.2501C8 14.8359 8.33579 14.5001 8.75 14.5001H21.25C21.6642 14.5001 22 14.8359 22 15.2501C22 15.6643 21.6642 16.0001 21.25 16.0001H8.75C8.33579 16.0001 8 15.6643 8 15.2501Z" fill="#121212"/>
<path d="M8 11.7501C8 11.3359 8.33579 11.0001 8.75 11.0001H14.25C14.6642 11.0001 15 11.3359 15 11.7501C15 12.1643 14.6642 12.5001 14.25 12.5001H8.75C8.33579 12.5001 8 12.1643 8 11.7501Z" fill="#121212"/>
<path d="M15 18.7501C15 18.3359 15.3358 18.0001 15.75 18.0001H21.25C21.6642 18.0001 22 18.3359 22 18.7501C22 19.1643 21.6642 19.5001 21.25 19.5001H15.75C15.3358 19.5001 15 19.1643 15 18.7501Z" fill="#121212"/>
</svg>
