<svg width="28" height="28" viewBox="0 0 28 28" fill="none" xmlns="http://www.w3.org/2000/svg">
<circle cx="14" cy="14" r="14" fill="#1DA2F4"/>
<path d="M19.5 9H19C17.6215 9 16.5 10.1215 16.5 11.5V16.1305C16.0081 15.7226 15.389 15.4995 14.75 15.5C13.234 15.5 12 16.7335 12 18.25C12 19.7665 13.234 21 14.75 21C16.266 21 17.5 19.7665 17.5 18.25V11.5C17.5 10.673 18.173 10 19 10H19.5C19.6326 10 19.7598 9.94732 19.8536 9.85355C19.9473 9.75979 20 9.63261 20 9.5C20 9.36739 19.9473 9.24021 19.8536 9.14645C19.7598 9.05268 19.6326 9 19.5 9ZM14.75 20C13.785 20 13 19.215 13 18.25C13 17.285 13.785 16.5 14.75 16.5C15.715 16.5 16.5 17.285 16.5 18.25C16.5 19.215 15.715 20 14.75 20ZM8 9.5C8 9.36739 8.05268 9.24021 8.14645 9.14645C8.24021 9.05268 8.36739 9 8.5 9H14C14.1326 9 14.2598 9.05268 14.3536 9.14645C14.4473 9.24021 14.5 9.36739 14.5 9.5C14.5 9.63261 14.4473 9.75979 14.3536 9.85355C14.2598 9.94732 14.1326 10 14 10H8.5C8.36739 10 8.24021 9.94732 8.14645 9.85355C8.05268 9.75979 8 9.63261 8 9.5ZM8 12.5C8 12.3674 8.05268 12.2402 8.14645 12.1464C8.24021 12.0527 8.36739 12 8.5 12H14C14.1326 12 14.2598 12.0527 14.3536 12.1464C14.4473 12.2402 14.5 12.3674 14.5 12.5C14.5 12.6326 14.4473 12.7598 14.3536 12.8536C14.2598 12.9473 14.1326 13 14 13H8.5C8.36739 13 8.24021 12.9473 8.14645 12.8536C8.05268 12.7598 8 12.6326 8 12.5ZM12 15.5C12 15.6326 11.9473 15.7598 11.8536 15.8536C11.7598 15.9473 11.6326 16 11.5 16H8.5C8.36739 16 8.24021 15.9473 8.14645 15.8536C8.05268 15.7598 8 15.6326 8 15.5C8 15.3674 8.05268 15.2402 8.14645 15.1464C8.24021 15.0527 8.36739 15 8.5 15H11.5C11.6326 15 11.7598 15.0527 11.8536 15.1464C11.9473 15.2402 12 15.3674 12 15.5Z" fill="white"/>
</svg>
