<svg width="32" height="50" viewBox="0 0 32 50" fill="none" xmlns="http://www.w3.org/2000/svg">
<path d="M30 0.384613H28C22.486 0.384613 18 4.98564 18 10.641V29.6379C16.0324 27.9645 13.5561 27.0494 11 27.0513C4.936 27.0513 0 32.1118 0 38.3333C0 44.5549 4.936 49.6154 11 49.6154C17.064 49.6154 22 44.5549 22 38.3333V10.641C22 7.2482 24.692 4.48718 28 4.48718H30C30.5304 4.48718 31.0391 4.27106 31.4142 3.88637C31.7893 3.50168 32 2.97993 32 2.43589C32 1.89186 31.7893 1.37011 31.4142 0.98542C31.0391 0.60073 30.5304 0.384613 30 0.384613ZM11 45.5128C7.14 45.5128 4 42.2923 4 38.3333C4 34.3744 7.14 31.1538 11 31.1538C14.86 31.1538 18 34.3744 18 38.3333C18 42.2923 14.86 45.5128 11 45.5128Z" fill="white"/>
</svg>
