<svg width="283" height="28" viewBox="0 0 283 28" fill="none" xmlns="http://www.w3.org/2000/svg">
<path d="M0 26.496L3.708 0.648H10.764L15.12 16.092C15.192 16.428 15.276 16.788 15.372 17.172C15.468 17.532 15.564 17.904 15.66 18.288C15.804 17.472 15.972 16.74 16.164 16.092L20.808 0.648H27.72L31.356 26.496H25.56L23.616 12.636C23.568 12.276 23.508 11.868 23.436 11.412C23.388 10.932 23.34 10.452 23.292 9.972C23.172 10.452 23.064 10.92 22.968 11.376C22.872 11.832 22.764 12.24 22.644 12.6L18.396 26.496H12.672L8.604 12.6C8.508 12.24 8.4 11.832 8.28 11.376C8.184 10.896 8.076 10.404 7.956 9.9C7.908 10.404 7.86 10.896 7.812 11.376C7.788 11.832 7.752 12.24 7.704 12.6L5.832 26.496H0Z" fill="#121212"/>
<path d="M37.63 0.648H43.714V17.136C43.714 18.576 44.002 19.632 44.578 20.304C45.178 20.952 46.018 21.276 47.098 21.276C48.394 21.276 49.294 20.916 49.798 20.196C50.326 19.452 50.59 18.312 50.59 16.776V0.648H56.674V17.244C56.674 20.436 55.834 22.884 54.154 24.588C52.498 26.292 50.17 27.144 47.17 27.144C44.146 27.144 41.794 26.28 40.114 24.552C38.458 22.8 37.63 20.292 37.63 17.028V0.648Z" fill="#121212"/>
<path d="M86.5626 0.648H92.6826V26.496H86.5626V0.648Z" fill="#121212"/>
<path d="M99.9744 13.536C99.9744 11.544 100.322 9.72 101.018 8.064C101.714 6.384 102.674 4.956 103.898 3.78C105.146 2.58 106.61 1.656 108.29 1.008C109.97 0.336001 111.794 0 113.762 0C116.138 0 118.238 0.456001 120.062 1.368C121.91 2.28 123.458 3.456 124.706 4.896L120.458 9C118.538 6.936 116.282 5.904 113.69 5.904C112.61 5.904 111.602 6.096 110.666 6.48C109.754 6.864 108.962 7.404 108.29 8.1C107.618 8.772 107.09 9.576 106.706 10.512C106.346 11.448 106.166 12.456 106.166 13.536C106.166 14.664 106.346 15.696 106.706 16.632C107.09 17.568 107.606 18.384 108.254 19.08C108.926 19.752 109.73 20.28 110.666 20.664C111.602 21.048 112.634 21.24 113.762 21.24C114.506 21.24 115.19 21.168 115.814 21.024C116.438 20.88 117.026 20.664 117.578 20.376C118.154 20.088 118.706 19.74 119.234 19.332C119.762 18.924 120.29 18.468 120.818 17.964L124.886 22.176C123.422 23.712 121.79 24.924 119.99 25.812C118.19 26.676 116.042 27.108 113.546 27.108C111.53 27.108 109.694 26.784 108.038 26.136C106.382 25.488 104.954 24.576 103.754 23.4C102.554 22.2 101.618 20.772 100.946 19.116C100.298 17.436 99.9744 15.576 99.9744 13.536Z" fill="#121212"/>
<path d="M144.676 0.648H152.488C155.704 0.648 158.116 1.392 159.724 2.88C161.332 4.344 162.136 6.384 162.136 9C162.136 10.2 161.92 11.304 161.488 12.312C161.056 13.32 160.432 14.196 159.616 14.94C158.824 15.684 157.84 16.26 156.664 16.668C155.512 17.076 154.192 17.28 152.704 17.28H150.796V26.496H144.676V0.648ZM150.796 6.336V11.628H152.56C154.792 11.628 155.908 10.752 155.908 9C155.908 7.224 154.72 6.336 152.344 6.336H150.796Z" fill="#121212"/>
<path d="M174.925 0.648V20.7H181.729V26.496H168.805V0.648H174.925Z" fill="#121212"/>
<path d="M194.738 0.648H201.794L211.082 26.496H204.638L203.054 21.708H193.406L191.822 26.496H185.486L194.738 0.648ZM201.218 16.092L198.266 7.092L195.278 16.092H201.218Z" fill="#121212"/>
<path d="M214.08 0.648H220.416L225.06 10.404L229.668 0.648H235.932L228.084 15.984V26.496H222V15.984L214.08 0.648Z" fill="#121212"/>
<path d="M241.051 26.496V0.648H255.883V6.372H247.135V10.152H255.883V15.696H247.135V20.7H255.883V26.496H241.051Z" fill="#121212"/>
<path d="M271.984 0.648C273.328 0.648 274.552 0.792001 275.656 1.08C276.784 1.368 277.744 1.824 278.536 2.448C279.352 3.048 279.976 3.828 280.408 4.788C280.864 5.724 281.092 6.852 281.092 8.172C281.092 11.508 279.508 13.812 276.34 15.084L282.316 26.496H275.512L270.4 16.056H269.752V26.496H263.668V0.648H271.984ZM269.788 5.976V11.124H271.984C272.968 11.124 273.7 10.884 274.18 10.404C274.66 9.924 274.9 9.276 274.9 8.46C274.9 6.804 273.892 5.976 271.876 5.976H269.788Z" fill="#121212"/>
<path d="M80.9639 0.179692C80.964 3.13035 78.6207 5.53281 75.7364 5.53292L74.8667 5.53251L74.874 20.9067C74.8749 21.314 74.8336 21.7209 74.756 22.1141C74.4891 23.4716 73.7675 24.7081 72.7177 25.5979C71.6552 26.4997 70.3101 26.9945 68.9286 27C68.5727 27.0013 68.2262 26.9682 67.8845 26.9072C66.6918 26.6942 65.5903 26.112 64.7141 25.2205C63.5866 24.068 62.9667 22.5415 62.9663 20.913C62.9687 17.5556 65.6362 14.822 68.9185 14.8209C69.8658 14.8208 70.7983 15.0521 71.6357 15.4899L71.6277 0.367788C71.6263 0.169394 71.7878 0.00728735 71.9817 0.00589258L80.9663 0L80.9639 0.179692Z" fill="#121212"/>
</svg>
