<svg width="35" height="35" viewBox="0 0 35 35" fill="none" xmlns="http://www.w3.org/2000/svg">
<path d="M11.5 5C10.5717 5 9.6815 5.36875 9.02513 6.02513C8.36875 6.6815 8 7.57174 8 8.5V25.5C8 26.4283 8.36875 27.3185 9.02513 27.9749C9.6815 28.6313 10.5717 29 11.5 29C12.4283 29 13.3185 28.6313 13.9749 27.9749C14.6313 27.3185 15 26.4283 15 25.5V8.5C15 7.57174 14.6313 6.6815 13.9749 6.02513C13.3185 5.36875 12.4283 5 11.5 5ZM22.5 5C21.5717 5 20.6815 5.36875 20.0251 6.02513C19.3687 6.6815 19 7.57174 19 8.5V25.5C19 26.4283 19.3687 27.3185 20.0251 27.9749C20.6815 28.6313 21.5717 29 22.5 29C23.4283 29 24.3185 28.6313 24.9749 27.9749C25.6313 27.3185 26 26.4283 26 25.5V8.5C26 7.57174 25.6313 6.6815 24.9749 6.02513C24.3185 5.36875 23.4283 5 22.5 5Z" fill="white"/>
</svg>
