<svg width="38" height="38" viewBox="0 0 38 38" fill="none" xmlns="http://www.w3.org/2000/svg">
<circle cx="19" cy="19" r="19" fill="#1DA2F4" fill-opacity="0.1"/>
<path d="M11.7121 13.7952V25.9289M22.9171 13.5159L12.2318 19.0877C12.0647 19.176 11.9272 19.2978 11.8319 19.4421C11.7365 19.5863 11.6866 19.7482 11.6866 19.9127C11.6866 20.0773 11.7365 20.2392 11.8319 20.3834C11.9272 20.5276 12.0647 20.6495 12.2318 20.7377L22.9171 26.2081C23.0906 26.2959 23.2891 26.3438 23.4922 26.3467C23.6953 26.3497 23.8957 26.3077 24.0728 26.225C24.25 26.1423 24.3974 26.022 24.5001 25.8762C24.6028 25.7305 24.6571 25.5647 24.6572 25.3958V14.2774C24.6467 14.1128 24.5849 13.9534 24.478 13.8146C24.371 13.6758 24.2226 13.5625 24.0472 13.4858C23.8718 13.409 23.6755 13.3714 23.4774 13.3767C23.2793 13.382 23.0862 13.4299 22.9171 13.5159Z" stroke="#1DA2F4" stroke-width="1.6" stroke-linecap="round" stroke-linejoin="round"/>
</svg>
