<svg width="18" height="18" viewBox="0 0 18 18" fill="none" xmlns="http://www.w3.org/2000/svg">
<path d="M14.5 4H14C12.6215 4 11.5 5.1215 11.5 6.5V11.1305C11.0081 10.7226 10.389 10.4995 9.75 10.5C8.234 10.5 7 11.7335 7 13.25C7 14.7665 8.234 16 9.75 16C11.266 16 12.5 14.7665 12.5 13.25V6.5C12.5 5.673 13.173 5 14 5H14.5C14.6326 5 14.7598 4.94732 14.8536 4.85355C14.9473 4.75979 15 4.63261 15 4.5C15 4.36739 14.9473 4.24021 14.8536 4.14645C14.7598 4.05268 14.6326 4 14.5 4ZM9.75 15C8.785 15 8 14.215 8 13.25C8 12.285 8.785 11.5 9.75 11.5C10.715 11.5 11.5 12.285 11.5 13.25C11.5 14.215 10.715 15 9.75 15ZM3 4.5C3 4.36739 3.05268 4.24021 3.14645 4.14645C3.24021 4.05268 3.36739 4 3.5 4H9C9.13261 4 9.25979 4.05268 9.35355 4.14645C9.44732 4.24021 9.5 4.36739 9.5 4.5C9.5 4.63261 9.44732 4.75979 9.35355 4.85355C9.25979 4.94732 9.13261 5 9 5H3.5C3.36739 5 3.24021 4.94732 3.14645 4.85355C3.05268 4.75979 3 4.63261 3 4.5ZM3 7.5C3 7.36739 3.05268 7.24021 3.14645 7.14645C3.24021 7.05268 3.36739 7 3.5 7H9C9.13261 7 9.25979 7.05268 9.35355 7.14645C9.44732 7.24021 9.5 7.36739 9.5 7.5C9.5 7.63261 9.44732 7.75979 9.35355 7.85355C9.25979 7.94732 9.13261 8 9 8H3.5C3.36739 8 3.24021 7.94732 3.14645 7.85355C3.05268 7.75979 3 7.63261 3 7.5ZM7 10.5C7 10.6326 6.94732 10.7598 6.85355 10.8536C6.75979 10.9473 6.63261 11 6.5 11H3.5C3.36739 11 3.24021 10.9473 3.14645 10.8536C3.05268 10.7598 3 10.6326 3 10.5C3 10.3674 3.05268 10.2402 3.14645 10.1464C3.24021 10.0527 3.36739 10 3.5 10H6.5C6.63261 10 6.75979 10.0527 6.85355 10.1464C6.94732 10.2402 7 10.3674 7 10.5Z" fill="#1DA2F4"/>
</svg>
