<svg width="38" height="38" viewBox="0 0 38 38" fill="none" xmlns="http://www.w3.org/2000/svg">
<circle cx="19" cy="19" r="19" transform="matrix(-1 0 0 1 38 0)" fill="#1DA2F4" fill-opacity="0.1"/>
<path d="M26.2879 13.7952V25.9289M15.0829 13.5159L25.7682 19.0877C25.9353 19.176 26.0728 19.2978 26.1681 19.4421C26.2635 19.5863 26.3134 19.7482 26.3134 19.9127C26.3134 20.0773 26.2635 20.2392 26.1681 20.3834C26.0728 20.5276 25.9353 20.6495 25.7682 20.7377L15.0829 26.2081C14.9094 26.2959 14.7109 26.3438 14.5078 26.3467C14.3047 26.3497 14.1043 26.3077 13.9272 26.225C13.75 26.1423 13.6026 26.022 13.4999 25.8762C13.3972 25.7305 13.3429 25.5647 13.3428 25.3958V14.2774C13.3533 14.1128 13.4151 13.9534 13.522 13.8146C13.629 13.6758 13.7774 13.5625 13.9528 13.4858C14.1282 13.409 14.3245 13.3714 14.5226 13.3767C14.7207 13.382 14.9138 13.4299 15.0829 13.5159Z" stroke="#1DA2F4" stroke-width="1.6" stroke-linecap="round" stroke-linejoin="round"/>
</svg>
