<svg width="16" height="16" viewBox="0 0 16 16" fill="none" xmlns="http://www.w3.org/2000/svg">
<path fill-rule="evenodd" clip-rule="evenodd" d="M15.0828 6.42431C15.2303 6.27536 15.3134 6.07446 15.3143 5.86484C15.3149 5.75956 15.2947 5.65466 15.2549 5.5572C15.2151 5.45974 15.1564 5.37109 15.0823 5.29635C15.0079 5.22137 14.9194 5.16185 14.822 5.12124C14.7245 5.08063 14.6199 5.05972 14.5143 5.05972C14.4087 5.05972 14.3042 5.08063 14.2067 5.12124C14.1092 5.16185 14.0207 5.22136 13.9464 5.29634L8.7124 10.5417C8.57438 10.6808 8.40978 10.7916 8.22893 10.8669C8.04789 10.9424 7.85371 10.9812 7.65759 10.9812C7.46146 10.9812 7.26728 10.9424 7.08624 10.8669C6.90539 10.7916 6.74124 10.6812 6.60322 10.5422L1.36952 5.29707C1.29516 5.22209 1.20595 5.16185 1.10848 5.12124C1.011 5.08063 0.906442 5.05972 0.800839 5.05972C0.695237 5.05972 0.590681 5.08063 0.493203 5.12124C0.395725 5.16185 0.307251 5.22136 0.232886 5.29634C0.0838976 5.44622 -3.02579e-07 5.64924 -2.93341e-07 5.86057C-2.84109e-07 6.07176 0.0835162 6.27438 0.232321 6.42422L5.47715 11.6691C6.05568 12.2468 6.83999 12.5714 7.65759 12.5714C8.47518 12.5714 9.25934 12.2469 9.83786 11.6692M9.83786 11.6692L15.0828 6.42431L9.83786 11.6692Z" fill="#121212"/>
</svg>
