<svg width="36" height="36" viewBox="0 0 36 36" fill="none" xmlns="http://www.w3.org/2000/svg">
<path d="M10.2452 5.21949L26.7374 15.5625C26.9902 15.7301 27.1975 15.9577 27.3409 16.2249C27.4843 16.4921 27.5593 16.7906 27.5593 17.0939C27.5593 17.3972 27.4843 17.6957 27.3409 17.9629C27.1975 18.2301 26.9902 18.4577 26.7374 18.6253L10.2452 28.7798C9.9856 28.9468 9.68632 29.0419 9.37794 29.0554C9.06956 29.0688 8.76314 29.0001 8.48998 28.8564C8.21683 28.7126 7.98675 28.4989 7.82323 28.2371C7.65972 27.9753 7.56865 27.6748 7.55933 27.3662V6.63311C7.56865 6.32458 7.65972 6.02405 7.82323 5.76224C7.98675 5.50043 8.21683 5.28673 8.48998 5.14296C8.76314 4.9992 9.06956 4.93053 9.37794 4.94398C9.68632 4.95742 9.9856 5.0525 10.2452 5.21949Z" fill="white"/>
</svg>
