<svg width="18" height="18" viewBox="0 0 18 18" fill="none" xmlns="http://www.w3.org/2000/svg">
<path d="M17.0999 8.99998C17.0999 11.9774 14.6773 14.4 11.6999 14.4H2.9249L4.47268 15.9478C4.59925 16.0743 4.67035 16.246 4.67035 16.425C4.67035 16.604 4.59925 16.7756 4.47268 16.9022C4.34611 17.0288 4.17445 17.0999 3.99545 17.0999C3.81646 17.0999 3.6448 17.0288 3.51823 16.9022L1.29545 14.6794C1.04253 14.4262 0.90047 14.0829 0.90047 13.725C0.90047 13.3671 1.04253 13.0238 1.29545 12.7705L3.51823 10.5478C3.5809 10.4851 3.6553 10.4354 3.73718 10.4015C3.81906 10.3675 3.90682 10.3501 3.99545 10.3501C4.08408 10.3501 4.17184 10.3675 4.25372 10.4015C4.33561 10.4354 4.41001 10.4851 4.47268 10.5478C4.53535 10.6104 4.58506 10.6848 4.61898 10.7667C4.65289 10.8486 4.67035 10.9364 4.67035 11.025C4.67035 11.1136 4.65289 11.2014 4.61898 11.2833C4.58506 11.3651 4.53535 11.4395 4.47268 11.5022L2.9249 13.05H11.6999C13.9335 13.05 15.7499 11.2336 15.7499 8.99998C15.7499 8.82096 15.821 8.64928 15.9476 8.52269C16.0742 8.3961 16.2459 8.32498 16.4249 8.32498C16.6039 8.32498 16.7756 8.3961 16.9022 8.52269C17.0288 8.64928 17.0999 8.82096 17.0999 8.99998ZM1.5749 9.67498C1.75392 9.67498 1.92561 9.60387 2.0522 9.47728C2.17879 9.35069 2.2499 9.17901 2.2499 8.99998C2.2499 6.76641 4.06633 4.94998 6.2999 4.94998H15.0749L13.5271 6.49776C13.4645 6.56043 13.4147 6.63483 13.3808 6.71671C13.3469 6.79859 13.3295 6.88636 13.3295 6.97498C13.3295 7.06361 13.3469 7.15137 13.3808 7.23326C13.4147 7.31514 13.4645 7.38954 13.5271 7.45221C13.5898 7.51488 13.6642 7.56459 13.7461 7.59851C13.828 7.63243 13.9157 7.64988 14.0044 7.64988C14.093 7.64988 14.1807 7.63243 14.2626 7.59851C14.3445 7.56459 14.4189 7.51488 14.4816 7.45221L16.7044 5.22943C17.2309 4.70361 17.2309 3.84636 16.7044 3.32053L14.4816 1.09776C14.4189 1.03509 14.3445 0.985376 14.2626 0.951459C14.1807 0.917542 14.093 0.900085 14.0044 0.900085C13.9157 0.900085 13.828 0.917542 13.7461 0.951459C13.6642 0.985376 13.5898 1.03509 13.5271 1.09776C13.4645 1.16043 13.4147 1.23483 13.3808 1.31671C13.3469 1.39859 13.3295 1.48635 13.3295 1.57498C13.3295 1.66361 13.3469 1.75137 13.3808 1.83326C13.4147 1.91514 13.4645 1.98954 13.5271 2.05221L15.0749 3.59998H6.2999C3.32248 3.59998 0.899902 6.02256 0.899902 8.99998C0.899902 9.17901 0.971018 9.35069 1.09761 9.47728C1.22419 9.60387 1.39588 9.67498 1.5749 9.67498Z" fill="black"/>
</svg>
