<svg width="18" height="18" viewBox="0 0 18 18" fill="none" xmlns="http://www.w3.org/2000/svg">
<path d="M16.7053 12.584L14.4838 10.3626C14.4219 10.2966 14.3474 10.2438 14.2647 10.2072C14.1819 10.1707 14.0927 10.1511 14.0023 10.1497C13.9118 10.1483 13.822 10.1651 13.7382 10.1991C13.6544 10.233 13.5782 10.2835 13.5143 10.3475C13.4504 10.4115 13.4 10.4877 13.366 10.5715C13.3321 10.6554 13.3154 10.7452 13.3169 10.8356C13.3183 10.926 13.338 11.0153 13.3746 11.098C13.4112 11.1807 13.4641 11.2552 13.5301 11.317L15.0758 12.8655C14.2355 12.8674 13.4033 12.7012 12.6283 12.3766C11.8532 12.052 11.1509 11.5756 10.5627 10.9755C10.4974 10.9153 10.4207 10.8689 10.3371 10.839C10.2535 10.8091 10.1647 10.7962 10.0761 10.8013C9.98741 10.8063 9.90068 10.8291 9.82101 10.8683C9.74134 10.9075 9.67036 10.9623 9.61228 11.0295L9.60351 11.043C9.49002 11.175 9.43193 11.3457 9.44136 11.5196C9.45079 11.6934 9.52703 11.8569 9.65413 11.9758C10.3628 12.6925 11.2078 13.2599 12.1393 13.6446C13.0709 14.0293 14.07 14.2234 15.0779 14.2155L13.5301 15.7633C13.4595 15.824 13.4023 15.8986 13.362 15.9824C13.3216 16.0662 13.2991 16.1575 13.2957 16.2505C13.2923 16.3434 13.3081 16.4361 13.3422 16.5227C13.3764 16.6092 13.428 16.6878 13.4939 16.7534C13.5599 16.819 13.6386 16.8704 13.7253 16.9041C13.812 16.9379 13.9047 16.9533 13.9977 16.9495C14.0907 16.9457 14.1818 16.9228 14.2655 16.8821C14.3491 16.8414 14.4235 16.7839 14.4838 16.7131L16.7053 14.4916C16.958 14.2385 17.0999 13.8955 17.0999 13.5378C17.0999 13.1802 16.958 12.8371 16.7053 12.584Z" fill="#1DA2F4"/>
<path d="M15.0758 6.11538L13.5301 7.66116C13.5169 7.67893 13.5047 7.6974 13.4936 7.71651C13.3847 7.84932 13.331 8.01891 13.3435 8.19021C13.3561 8.36152 13.4341 8.52144 13.5612 8.6369C13.6884 8.75237 13.8551 8.81455 14.0268 8.81059C14.1985 8.80663 14.3621 8.73683 14.4838 8.61563L16.706 6.39551C16.887 6.21309 17.0122 5.98281 17.0668 5.73171C17.1215 5.4806 17.1033 5.21912 17.0145 4.97799C16.9489 4.7934 16.8433 4.6256 16.7053 4.48658L14.4838 2.26781C14.4222 2.20086 14.3477 2.14705 14.2647 2.10964C14.1818 2.07222 14.0921 2.05196 14.0012 2.05007C13.9102 2.04819 13.8198 2.06472 13.7353 2.09867C13.6509 2.13262 13.5742 2.18329 13.5099 2.24763C13.4455 2.31198 13.3949 2.38867 13.3609 2.4731C13.327 2.55752 13.3104 2.64794 13.3123 2.73892C13.3142 2.8299 13.3345 2.91956 13.3719 3.00251C13.4093 3.08545 13.4631 3.15998 13.5301 3.2216L15.0779 4.76873C11.748 4.77683 9.92279 6.57372 8.26766 8.46375C6.74753 6.74787 4.94593 5.03536 1.8996 4.79641L1.57491 4.76536C1.39589 4.76536 1.2242 4.83647 1.09761 4.96306C0.971019 5.08965 0.899902 5.26135 0.899902 5.44037C0.903359 5.61831 0.975585 5.788 1.10143 5.91385C1.22728 6.0397 1.39697 6.11193 1.57491 6.11538C1.62352 6.11538 1.76864 6.13766 1.76864 6.13766C4.39849 6.33679 5.90782 7.81776 7.37597 9.49044C5.91659 11.155 4.41739 12.663 1.80914 12.8385L1.53914 12.8527C1.36146 12.8638 1.19546 12.945 1.07767 13.0785C0.959879 13.212 0.899941 13.3868 0.91104 13.5645C0.92214 13.7422 1.00337 13.9082 1.13686 14.0259C1.27035 14.1437 1.44516 14.2037 1.62284 14.1926C1.72814 14.1879 1.8996 14.1838 1.98397 14.1771C5.37253 13.9158 7.21059 11.747 8.84952 9.8509C10.5047 7.93792 12.068 6.12753 15.0758 6.11538Z" fill="#1DA2F4"/>
</svg>
