<svg width="145" height="206" viewBox="0 0 145 206" fill="none" xmlns="http://www.w3.org/2000/svg">
<path d="M90.2387 106.086C77.3109 106.086 66.8293 116.559 66.8293 129.478C66.8293 131.41 67.0907 133.276 67.5315 135.071C65.8271 132.048 64.8432 128.565 64.8432 124.849C64.8432 113.325 74.1919 103.982 85.7254 103.982C89.623 103.982 93.2582 105.069 96.3809 106.928C94.4206 106.395 92.3674 106.086 90.2387 106.086ZM134.368 79.7523L50.9105 7.56024C30.9799 -9.67941 0 4.46655 0 30.8079V103V175.193C0 201.533 30.9799 215.679 50.9105 198.44L54.8237 195.055C57.893 192.4 59.6701 188.551 59.6986 184.493C59.7115 181.643 57.1972 179.418 54.3635 179.834L34.8278 182.57C30.8925 183.113 27.4523 180.745 26.2209 177.384C25.6853 175.919 25.5602 174.282 26.0084 172.612C26.2716 171.633 25.8611 170.598 24.9923 170.075L21.9645 168.251C20.4404 167.334 19.6876 165.536 20.1008 163.807L20.7285 161.19L18.1377 159.071C17.1567 158.267 16.7103 156.979 16.9864 155.741L17.8377 151.917C18.0936 150.765 17.3509 149.669 16.1848 149.481L12.7686 148.927C9.25846 148.375 7.27792 144.599 8.76884 141.392L17.0656 123.713C9.39466 95.2998 24.6279 65.2606 52.8082 54.9559C56.1048 53.7512 59.4437 52.8665 62.7873 52.2881C69.8204 51.0695 76.2737 56.3832 76.894 63.4902C77.8207 74.1057 77.7894 85.4504 76.8093 97.667C76.4301 97.7598 76.0454 97.9006 75.6598 98.0413C63.991 102.308 56.8502 113.482 57.1641 125.257C57.2552 129.813 58.5096 134.479 61.0129 138.815C66.278 147.937 76.5452 153.434 87.0589 152.71C93.2546 152.283 98.7066 149.989 102.964 146.569C112.196 139.222 116.14 126.532 111.863 114.851C109.623 108.738 105.497 103.865 100.346 100.653C101.258 90.0192 101.499 79.939 101.092 70.3342C100.881 65.3838 106.798 62.5356 110.523 65.8059C117.486 71.9197 123.06 79.813 126.47 89.1262C130.553 100.273 130.944 111.86 128.281 122.569C127.407 126.092 131.622 128.623 134.368 126.248C148.544 113.986 148.544 92.0148 134.368 79.7523Z" fill="#25A5F4"/>
</svg>
